<?xml version="1.0" encoding="UTF-8"?>
<svg id="Layer_2" data-name="Layer 2" xmlns="http://www.w3.org/2000/svg" viewBox="0 0 152.66 142.36">
  <defs>
    <style>
      .cls-1 {
        fill: none;
        stroke: #a7a9ac;
        stroke-miterlimit: 10;
        stroke-width: 6px;
      }

      .cls-2 {
        fill: #f7b5d1;
      }

      .cls-3 {
        fill: #a7a9ac;
      }

      .cls-4 {
        fill: #ce549f;
      }

      .cls-5 {
        fill: #534fa1;
      }
    </style>
  </defs>
  <g>
    <path class="cls-1" d="m83.69,124.82c-5.13,1.42-10.53,2.18-16.11,2.18-12.44,0-24-3.78-33.59-10.26"/>
    <polygon class="cls-3" points="78.62 117.89 94.54 120.63 84.21 133.05 78.62 117.89"/>
  </g>
  <g>
    <path class="cls-1" d="m109.68,24.06c11.1,10.9,17.98,26.08,17.98,42.86,0,1.32-.04,2.64-.13,3.94"/>
    <polygon class="cls-3" points="106.19 31.92 100.64 16.75 116.56 19.53 106.19 31.92"/>
  </g>
  <path class="cls-4" d="m106.27,127.01c1.16-3.15,2.49-6.52,5.33-8.3,2.05-1.28,4.57-1.53,6.99-1.48,7.43.16,14.6,2.78,21.99,3.54-5.18-2.1-9.09-7.05-9.92-12.57-.22-1.44-.24-2.95.27-4.32,1.26-3.4,5.19-4.85,8.66-5.89-5.69-.69-16.47-1.47-14.07-10.07.57-2.05,1.85-3.83,3.25-5.43,4.23-4.87,9.68-8.5,14.4-12.89,6.86-6.37,13.07-16.93,7.06-25.96-3.81-5.73-10.77-8.42-17.4-8.95-3.33-.27-6.73-.05-9.91.95-3.52,1.1-6.79,3.2-8.93,6.25-.01.02-.02.03-.03.05-.36.6-3.5-.76-3.97-1-1.38-.71-2.69-1.64-3.9-2.61-.29-.23-.61-.51-.67-.88-.05-.31.09-.62.25-.9.48-.8,1.5-1.33,1.88-2-1.11.09-2.51.93-2.86,2.05-.43,1.39.57,2.6,1.53,3.47,1.76,1.59,4.18,2.98,6.62,3.25-.44.31-.98.55-1.33.75-.66.37-1.33.7-2.03.99-1.42.6-2.92,1.03-4.44,1.29-1.99.35-9.24,1.55-8.96-1.94.03-.38-.02-.68-.33-.88-1,.99.4,2.95,1.29,3.55,1.14.77,2.58.96,3.95,1,2.4.06,4.8-.28,7.09-1,1.18-.37,2.33-.84,3.43-1.4.44-.23,2.28-.97,2.45-1.49-.33,1.01-.11,2.1.36,3.08,1.15,2.38,3.46,4.08,6.01,4.67.89.21-.43-.37-1.33-1.07-.57-.45-1.55-1.13-2.59-2.16-5.08-5.05,5.26-8.53,8.84-8.9,3.34-.35,6.73.15,9.99.97,2.11.53,4.22,1.2,6.06,2.36,11.58,7.22-.97,19.85-6.82,25.96-4.07,4.25-8.06,8.35-13.83,10.13-5.82,1.8-12.17,1.87-18.02.15-3.6-1.06-6.97-2.75-10.32-4.44,2.94,2.23,5.2,5.33,6.43,8.81.98,2.79,1.13,6.3-1.04,8.31-1.19,1.1-2.84,1.52-4.44,1.75-5.59.8-11.27-.28-16.77-1.57.88.82,2.12,1.1,3.3,1.34,3.99.82,7.99,1.64,11.98,2.45,1.8.37,3.76.84,4.86,2.31,1.41,1.89.76,4.62-.39,6.67-3.78,6.74-11.59,9.94-17.45,14.98,6.18-3.2,11.46-8.1,17.99-10.51,2-.74,4.18-1.23,6.26-.76,1.43.32,2.75,1.11,3.7,2.23,1.79,2.14,2.04,5.2,1.57,7.95-.17,1.02-.43,2.02-.71,3.02-.47,1.69-1.02,3.37-1.36,5.09Z"/>
  <path class="cls-5" d="m67.83,0C31.04,0,1.11,29.93,1.11,66.72c0,13.56,4,26.47,11.58,37.56L0,114.15l7.35,8.54,34.81-27.09-7.35-8.54-12.53,9.75c-5.92-8.93-9.05-19.26-9.05-30.1,0-30.11,24.49-54.6,54.6-54.6,7.37,0,14.52,1.44,21.25,4.29l4.72-11.16c-8.23-3.48-16.97-5.25-25.97-5.25Z"/>
  <path class="cls-4" d="m75.78,122.15c-1.1-4.75-5-8.75-9.76-9.96-2.98-.76-6.59-.74-9.5.22-3.89,1.28-7.18,3.67-9.37,7.16-2.13,3.4-2.97,8.07-1.84,11.96.68,2.32,1.77,4.64,3.54,6.35,1.46,1.42,3.03,2.45,4.9,3.24,1.92.81,3.89,1.22,6,1.23,1.18,0,2.57-.28,3.72-.48.28-.05.55-.09.83-.17,2.74-.81,5.64-2.35,7.61-4.46.96-1.03,1.95-2.25,2.61-3.5,1.3-2.47,1.67-4.61,1.95-7.37.13-1.33-.16-2.8-.7-4.22Z"/>
  <path class="cls-2" d="m72.48,120.42c-.55-1.49-1.11-2.5-2.18-3.69-.61-.68-1.39-1.2-2.12-1.75-1.36-1.02-3.83-1.13-5.39-.71-.97.27-1.99.83-2.82,1.56-1.32.77-2.46,1.88-3.31,3.31-2.68,4.49-.29,10.35,4.33,12.31,2.43,1.03,5.16.93,7.49-.4,1.92-1.1,3.54-3.08,4.1-5.24.45-1.73.53-3.68-.1-5.38Z"/>
  <path class="cls-2" d="m112.14,89.09c-2.2-.12-4.24.72-5.4,2.35-2.54,1.87-3.23,5.56-2.01,8.59,1.47,3.65,5.4,7.52,9.42,8.05,2.79.37,5.27-.89,6.52-3,.74-.72,1.31-1.63,1.64-2.67.95-3.1-.4-6.16-2.31-8.57-1.91-2.42-4.66-4.57-7.87-4.75Z"/>
</svg>